<?xml version="1.0" standalone="no"?>
<!DOCTYPE svg PUBLIC "-//W3C//DTD SVG 1.1//EN" "http://www.w3.org/Graphics/SVG/1.1/DTD/svg11.dtd">
<svg xmlns="http://www.w3.org/2000/svg">
<defs >
<font id="AlegreyaSansSC" horiz-adv-x="482" ><font-face
    font-family="Alegreya Sans SC Thin"
    units-per-em="1000"
    panose-1="0 0 3 0 0 0 0 0 0 0"
    ascent="900"
    descent="-300"
    alphabetic="0" />
<glyph unicode=" " glyph-name="space" horiz-adv-x="180" />
<glyph unicode="!" glyph-name="exclam" horiz-adv-x="247" d="M134 198H118L114 203L122 651L125 654H139L142 651L134 198ZM135 38T135 18Q135 -2 115 -2Q95 -2 95 18Q95 38 115 38Q135 38 135 18Z" />
<glyph unicode="&quot;" glyph-name="quotedbl" horiz-adv-x="222" d="M67 487L50 485L47 489L59 633L76 635L79 631L67 487ZM164 487L147 485L144 489L156 633L173 635L176 631L164 487Z" />
<glyph unicode="#" glyph-name="numbersign" horiz-adv-x="480" d="M298 245H419L422 242L420 225H293L244 32H228L225 36L273 225H155L106 32H90L87 36L135 225H23L20 228L22 245H140L173 374H61L58 377L60 394H178L224 575H240L242 570L198 394H316L362 575H378L380
570L336 394H457L460 391L458 374H330L298 245ZM192 374L160 245H278L311 374H192Z" />
<glyph unicode="$" glyph-name="dollar" horiz-adv-x="417" d="M341 75T301 38T199 -3L188 -124H173L169 -120L179 -3Q111 0 61 33L62 52L67 53Q115 18 181 16L200 241Q158 260 133 275T91 314T73 371Q73 404 92 432T144 476T221 493L234 640H250L254 635L242
492Q284 488 324 471L320 453L314 452Q277 470 240 473L221 255Q279 228 310 201T341 126Q341 75 301 38ZM93 333T120 311T202 264L219 474Q180 474 152 459T108 419T93 369Q93 333 120 311ZM255 21T288 53T321 125Q321 162 295 185T219 232L201 17Q255 21 288
53Z" />
<glyph unicode="%" glyph-name="percent" horiz-adv-x="792" d="M626 656L141 -90L132 -86L128 -77L613 669L623 664L626 656ZM253 638T288 594T323 468Q323 385 288 341T186 296Q120 296 85 340T50 466Q50 549 85 593T188 638Q253 638 288 594ZM129 619T99 580T68
468Q68 394 99 355T188 315Q244 315 274 354T305 466Q305 540 275 579T186 619Q129 619 99 580ZM672 339T707 295T742 169Q742 86 707 42T605 -3Q539 -3 504 41T469 167Q469 250 504 294T607 339Q672 339 707 295ZM548 320T518 281T487 169Q487 95 518 56T607 16Q663
16 693 55T724 167Q724 241 694 280T605 320Q548 320 518 281Z" />
<glyph unicode="&amp;" glyph-name="ampersand" horiz-adv-x="786" d="M819 312T794 292T726 268Q692 268 602 288Q605 199 570 132T469 27T312 -10Q236 -10 178 24T88 119T56 262Q56 329 79 382T143 465T231 495Q277 495 305 473T333 414Q333 383 314 354Q418
425 500 518T626 711H630Q635 702 638 691Q589 586 503 491T308 324T80 213Q94 120 156 66T312 11Q396 11 458 46T553 145T582 292Q521 305 500 305Q432 305 404 228L399 226L386 236Q405 281 430 301T498 325Q522 325 604 307Q697 288 724 288Q792 288 820 365L825
367L838 357Q819 312 794 292ZM189 475T153 449T97 374T76 262Q76 242 77 233Q176 266 269 324Q317 362 312 416Q311 443 289 459T232 475Q189 475 153 449Z" />
<glyph unicode="&apos;" glyph-name="quotesingle" horiz-adv-x="125" d="M67 487L50 485L47 489L59 633L76 635L79 631L67 487Z" />
<glyph unicode="(" glyph-name="parenleft" horiz-adv-x="281" d="M275 648Q188 586 152 498T115 260Q116 110 152 22T275 -128V-132L266 -143H262Q201 -99 165 -45T113 82T95 260Q96 365 112 438T165 565T262 663H266L275 652V648Z" />
<glyph unicode=")" glyph-name="parenright" horiz-adv-x="281" d="M6 -128Q93 -66 129 22T166 260Q165 410 129 498T6 648V652L15 663H19Q80 619 116 565T168 438T186 260Q185 155 169 82T116 -45T19 -143H15L6 -132V-128Z" />
<glyph unicode="*" glyph-name="asterisk" horiz-adv-x="364" d="M188 600L174 598L171 603L176 712Q187 715 197 715L199 713L188 600ZM148 569L143 568L41 606Q41 620 44 627L47 629L151 583L148 569ZM323 609T327 597L326 595L215 570L210 583L213 587L317
616Q323 609 327 597ZM271 452Q263 441 256 437H253L195 535L206 544L211 542L271 452ZM167 530L100 445Q90 448 81 455L80 458L156 543L168 536L167 530Z" />
<glyph unicode="+" glyph-name="plus" horiz-adv-x="480" d="M250 280H438L441 277L439 260H250V71L233 69L230 72V260H42L39 263L41 280H230V469L247 471L250 468V280Z" />
<glyph unicode="," glyph-name="comma" horiz-adv-x="230" d="M149 24T149 -7Q149 -49 83 -100L73 -89L74 -86Q128 -46 128 -8Q128 12 98 26V30Q103 37 111 41Q149 24 149 -7Z" />
<glyph unicode="-" glyph-name="hyphen" horiz-adv-x="311" d="M280 261L35 228L31 232V248L276 281L280 277V261Z" />
<glyph unicode="." glyph-name="period" horiz-adv-x="230" d="M135 38T135 18Q135 -2 115 -2Q95 -2 95 18Q95 38 115 38Q135 38 135 18Z" />
<glyph unicode="/" glyph-name="slash" horiz-adv-x="291" d="M66 -110H50L47 -106L251 675H267L270 670L66 -110Z" />
<glyph unicode="0" glyph-name="zero" horiz-adv-x="535" d="M371 495T425 430T480 243Q480 124 425 60T267 -4Q165 -4 110 59T55 241Q55 364 110 429T269 495Q371 495 425 430ZM175 475T125 415T75 243Q75 133 125 75T269 16Q361 16 410 74T460 241Q460 354 410
414T267 475Q175 475 125 415Z" />
<glyph unicode="1" glyph-name="one" horiz-adv-x="328" d="M186 0H166V466L20 421L15 424V440L182 493L186 489V0Z" />
<glyph unicode="2" glyph-name="two" horiz-adv-x="439" d="M266 492T298 464T330 393Q330 353 301 301T209 175L83 23L85 20H322L400 21L403 17L399 -1L317 0H95L57 -1L55 1V17L195 188Q254 260 282 307T310 391Q310 426 285 449T214 472Q133 472 73 395H69L65
412Q94 449 133 470T215 492Q266 492 298 464Z" />
<glyph unicode="3" glyph-name="three" horiz-adv-x="392" d="M234 493T270 461T307 375Q307 329 278 288T201 224V221Q267 207 302 169T337 72Q337 22 311 -17T239 -77T132 -99Q88 -99 45 -91L42 -74L45 -71Q88 -79 132 -79Q215 -79 266 -38T317 72Q317 134 273
169T147 209H100L97 212L98 228H141Q172 228 206 247T263 299T286 372Q286 417 256 444T177 472Q110 472 47 409H43L39 427Q106 493 177 493Q234 493 270 461Z" />
<glyph unicode="4" glyph-name="four" horiz-adv-x="457" d="M417 98L346 99H312V-92L310 -95L294 -98L292 -95V99H77L35 98L32 102V119L292 491H312V119H417L421 115L417 98ZM292 452H288L56 119H292V452Z" />
<glyph unicode="5" glyph-name="five" horiz-adv-x="403" d="M347 472L344 470L303 471H108L102 265L168 250Q260 229 303 190T346 90Q346 34 318 -9T239 -75T121 -99Q86 -99 48 -92L44 -75L47 -72Q88 -79 122 -79Q214 -79 270 -33T326 91Q326 143 286 176T161
230L87 247L83 252L88 484L97 492L146 491H282L347 492L349 490L347 472Z" />
<glyph unicode="6" glyph-name="six" horiz-adv-x="456" d="M320 335T361 293T402 174Q402 87 357 41T227 -6Q147 -6 104 49T60 206Q60 340 138 440T360 592H364L373 581V577Q251 533 178 457T86 277L88 275Q161 335 247 335Q320 335 361 293ZM302 14T342 55T382
174Q382 242 346 278T246 315Q160 315 82 247Q80 221 80 206Q80 114 118 64T227 14Q302 14 342 55Z" />
<glyph unicode="7" glyph-name="seven" horiz-adv-x="401" d="M334 491L370 492L371 474L148 -19L113 -105L94 -99L93 -95L349 471H90L32 470L28 475L31 492L96 491H334Z" />
<glyph unicode="8" glyph-name="eight" horiz-adv-x="455" d="M297 589T334 554T371 456Q371 398 338 364T249 307V304Q294 286 323 269T371 223T391 151Q391 81 344 39T219 -4Q144 -4 100 36T55 144Q55 252 195 305V308Q142 331 112 363T82 448Q82 513 124 551T233
589Q297 589 334 554ZM174 569T138 537T102 448Q102 396 132 369T222 316Q280 335 315 367T351 457Q351 509 320 539T233 569Q174 569 138 537ZM154 272T115 238T75 143Q75 86 114 51T219 16Q288 16 329 52T371 149Q371 190 351 217T302 259T220 296Q154 272 115
238Z" />
<glyph unicode="9" glyph-name="nine" horiz-adv-x="456" d="M136 157T95 199T54 318Q54 405 99 451T229 498Q309 498 352 443T396 286Q396 152 318 52T96 -100H92L83 -89V-85Q205 -41 278 35T370 215L368 217Q295 157 209 157Q136 157 95 199ZM154 478T114 437T74
318Q74 250 110 214T210 177Q296 177 374 245Q376 271 376 286Q376 378 338 428T229 478Q154 478 114 437Z" />
<glyph unicode=":" glyph-name="colon" horiz-adv-x="230" d="M387 38T387 18Q387 -2 367 -2Q347 -2 347 18Q347 38 367 38Q387 38 387 18ZM131 315T131 295Q131 275 111 275Q91 275 91 295Q91 315 111 315Q131 315 131 295Z" />
<glyph unicode=";" glyph-name="semicolon" horiz-adv-x="230" d="M401 24T401 -7Q401 -49 335 -100L325 -89L326 -86Q380 -46 380 -8Q380 12 350 26V30Q355 37 363 41Q401 24 401 -7ZM131 315T131 295Q131 275 111 275Q91 275 91 295Q91 315 111 315Q131 315 131 295Z" />
<glyph unicode="&lt;" glyph-name="less" horiz-adv-x="480" d="M40 280V258L430 98L434 100L440 115L66 268V272L436 436L439 441L432 455L43 284L40 280Z" />
<glyph unicode="=" glyph-name="equal" horiz-adv-x="480" d="M439 332H42L39 335L41 352H438L441 349L439 332ZM439 444H42L39 447L41 464H438L441 461L439 444Z" />
<glyph unicode="&gt;" glyph-name="greater" horiz-adv-x="480" d="M440 280V258L50 98L46 100L40 115L414 268V272L44 436L41 441L48 455L437 284L440 280Z" />
<glyph unicode="?" glyph-name="question" horiz-adv-x="322" d="M196 645T254 605T312 500Q312 424 235 372L139 306L138 303L143 195L126 194L123 198L117 308L122 317L223 386Q292 430 292 498Q292 557 236 592T77 634L75 637L81 651L87 654Q196 645 254 605ZM155
38T155 18Q155 -2 135 -2Q115 -2 115 18Q115 38 135 38Q155 38 155 18Z" />
<glyph unicode="@" glyph-name="at" horiz-adv-x="805" d="M538 592T611 553T723 445T763 284Q763 152 686 79T463 -4L499 271H494Q401 94 292 -4H281Q254 16 242 48T229 137Q229 222 255 293T333 408T456 457H460L525 452L538 459L543 456L497 106L489 16Q613
28 678 96T743 284Q743 370 707 435T602 536T441 572Q329 572 244 524T111 391T64 194Q64 83 111 2T246 -122T450 -165L451 -169L438 -185Q321 -183 232 -136T94 -5T44 190Q44 309 93 400T233 542T441 592Q538 592 611 553ZM297 24T333 64T416 175T508 336L511
362L518 432L458 437Q395 436 348 395T275 286T249 141Q249 100 256 74T272 36T289 24Q297 24 333 64Z" />
<glyph unicode="A" glyph-name="A" horiz-adv-x="554" d="M503 0L490 43L427 213H125L57 43L43 0H19L273 637H293L526 0H503ZM284 603H280L133 233H420L284 603Z" />
<glyph unicode="B" glyph-name="B" horiz-adv-x="492" d="M370 324T408 285T447 176Q447 91 388 44T219 -3Q161 -3 110 0V637L233 639Q312 639 354 601T397 491Q397 372 301 334Q370 324 408 285ZM130 618V343L260 340Q316 351 346 390T376 491Q376 549 339 583T240
618H130ZM317 17T372 59T427 176Q427 240 386 277T269 320H130V20Q169 17 215 17Q317 17 372 59Z" />
<glyph unicode="C" glyph-name="C" horiz-adv-x="523" d="M413 641T489 582L482 565H475Q405 621 313 621Q194 621 131 542T68 316Q68 171 128 93T301 15Q401 15 484 82L491 80L489 62Q402 -5 302 -5Q179 -5 114 78T48 317Q48 473 116 557T313 641Q413 641 489 582Z" />
<glyph unicode="D" glyph-name="D" horiz-adv-x="637" d="M445 642T517 564T589 339Q589 173 515 84T301 -5Q220 -5 110 0V637L311 642Q445 642 517 564ZM430 15T499 99T569 339Q569 476 502 549T311 622Q233 622 130 617V20Q237 15 301 15Q430 15 499 99Z" />
<glyph unicode="E" glyph-name="E" horiz-adv-x="454" d="M421 0H110V637H418L421 633L417 617H130V340H368L371 336L367 320H130V20H422L425 16L421 0Z" />
<glyph unicode="F" glyph-name="F" horiz-adv-x="411" d="M130 330H357L360 326L356 310H130V0H110V637H407L410 633L406 617H130V330Z" />
<glyph unicode="G" glyph-name="G" horiz-adv-x="603" d="M432 641T523 587L517 569H510Q423 621 343 621Q211 621 140 541T68 312Q68 169 130 92T307 15Q354 15 393 21T496 45V236L516 238V30Q450 11 407 4T308 -5Q183 -5 116 77T48 313Q48 471 124 556T343 641Q432
641 523 587Z" />
<glyph unicode="H" glyph-name="H" horiz-adv-x="670" d="M560 0H540V314H130V0H110V637H130V334H540V637H560V0Z" />
<glyph unicode="I" glyph-name="I" horiz-adv-x="240" d="M110 0V637H130V0H110Z" />
<glyph unicode="J" glyph-name="J" horiz-adv-x="268" d="M160 115Q160 45 131 -3T31 -98L20 -87V-81Q84 -39 112 6T140 113V617H12L8 621L11 637H160V115Z" />
<glyph unicode="K" glyph-name="K" horiz-adv-x="507" d="M110 0V637H130V0H110ZM332 164T498 5V1Q495 -2 484 -7L480 -6Q297 172 159 338V341L408 590L451 637H482L186 340Q332 164 498 5Z" />
<glyph unicode="L" glyph-name="L" horiz-adv-x="398" d="M389 0H109V637H129V20H390L393 16L389 0Z" />
<glyph unicode="M" glyph-name="M" horiz-adv-x="781" d="M684 0L664 195L620 589H615L401 81H376L166 589H161L118 195L97 0H76L146 637H169L209 538L386 110H390L577 549L614 637H637L705 0H684Z" />
<glyph unicode="N" glyph-name="N" horiz-adv-x="670" d="M558 0H539L135 595H131L130 199V0H110V190L111 637H130L534 42H538L540 636L560 638L559 176L558 0Z" />
<glyph unicode="O" glyph-name="O" horiz-adv-x="627" d="M444 642T511 561T579 329Q579 168 509 82T308 -5Q183 -5 116 78T48 317Q48 474 118 558T318 642Q444 642 511 561ZM197 622T133 543T68 317Q68 172 130 94T308 15Q429 15 494 96T559 329Q559 470 497
546T318 622Q197 622 133 543Z" />
<glyph unicode="P" glyph-name="P" horiz-adv-x="484" d="M338 639T385 593T432 460Q432 358 377 304T219 249H130V0H110V637L251 639Q338 639 385 593ZM327 276T369 326T412 460Q412 534 372 575T258 619L130 618V269H249Q327 276 369 326Z" />
<glyph unicode="Q" glyph-name="Q" horiz-adv-x="628" d="M439 -67T533 -109T729 -164V-170L721 -182H716Q614 -169 516 -123T336 -4Q327 -5 308 -5Q183 -5 116 78T48 317Q48 474 118 558T318 642Q444 642 511 561T579 329Q579 185 523 101T362 -1Q439 -67 533
-109ZM68 172T130 94T308 15Q429 15 494 96T559 329Q559 470 497 546T318 622Q197 622 133 543T68 317Q68 172 130 94Z" />
<glyph unicode="R" glyph-name="R" horiz-adv-x="518" d="M363 139T466 5V1Q461 -4 454 -7L448 -5Q341 135 264 263H130V0H110V637L251 639Q338 639 385 594T432 464Q432 390 394 340T285 267Q363 139 466 5ZM272 283Q339 300 375 347T412 464Q412 536 372 576T258
619L130 618V283H272Z" />
<glyph unicode="S" glyph-name="S" horiz-adv-x="445" d="M306 640T368 611L364 593L357 592Q302 620 244 620Q196 620 160 600T105 547T86 480Q86 445 105 420T151 378T228 337Q282 310 313 290T367 239T390 162Q390 118 366 80T300 19T204 -4Q165 -4 124 8T52
43L53 62L58 64Q88 40 127 28T203 16Q252 16 290 37T349 91T370 162Q370 200 350 227T302 272T223 314Q170 340 140 359T88 409T66 483Q66 526 89 562T153 619T246 640Q306 640 368 611Z" />
<glyph unicode="T" glyph-name="T" horiz-adv-x="475" d="M443 617H248V0H228V617H31L28 621L32 637H444L447 633L443 617Z" />
<glyph unicode="U" glyph-name="U" horiz-adv-x="612" d="M529 119T471 58T306 -4Q199 -4 143 56T86 229V637H106V229Q105 126 157 71T306 16Q403 16 454 71T506 229V637H526V229Q529 119 471 58Z" />
<glyph unicode="V" glyph-name="V" horiz-adv-x="538" d="M253 0L20 637H43L56 594L262 34H266L489 594L503 637H527L273 0H253Z" />
<glyph unicode="W" glyph-name="W" horiz-adv-x="884" d="M602 0L446 438H442L272 0H252L23 637H46L59 594L261 34H265L434 471L374 637H396L409 594L611 34H615L834 594L848 637H871L622 0H602Z" />
<glyph unicode="X" glyph-name="X" horiz-adv-x="566" d="M520 0H493L469 38L276 314L83 36L61 0H34L263 330L48 637H76L98 602L276 346L450 597L474 637H501L289 330L520 0Z" />
<glyph unicode="Y" glyph-name="Y" horiz-adv-x="495" d="M248 0H228V246L26 637H52L63 611L236 277H241L429 611L440 637H466L248 245V0Z" />
<glyph unicode="Z" glyph-name="Z" horiz-adv-x="507" d="M59 20H390L458 21L462 16L459 0H68L32 -1V17L433 617H113L55 616L51 621L54 638L119 637H423L460 638V620L59 20Z" />
<glyph unicode="[" glyph-name="bracketleft" horiz-adv-x="281" d="M267 627L137 618V-105L267 -114V-129L263 -133L117 -123V636L263 646L267 642V627Z" />
<glyph unicode="\" glyph-name="backslash" horiz-adv-x="291" d="M225 -110H241L244 -106L40 675H24L21 670L225 -110Z" />
<glyph unicode="]" glyph-name="bracketright" horiz-adv-x="281" d="M14 -114L144 -105V618L14 627V642L18 646L164 636V-123L18 -133L14 -129V-114Z" />
<glyph unicode="^" glyph-name="asciicircum" horiz-adv-x="407" d="M380 117L365 112L212 462H208L44 116L39 113L25 120L196 484L200 487H222L382 121L380 117Z" />
<glyph unicode="_" glyph-name="underscore" horiz-adv-x="455" d="M468 -106H-12L-15 -103L-13 -86H467L470 -89L468 -106Z" />
<glyph unicode="`" glyph-name="grave" horiz-adv-x="390" d="M115 658L116 653Q185 584 260 518L265 519L276 532Q207 590 130 669L125 668L115 658Z" />
<glyph unicode="a" glyph-name="a" horiz-adv-x="494" d="M429 0L419 35L370 161H122L69 35L57 0H34L241 491H262L452 0H429ZM252 461H249L130 180H362L252 461Z" />
<glyph unicode="b" glyph-name="b" horiz-adv-x="444" d="M326 249T357 219T389 136Q389 70 340 34T200 -2Q137 -2 108 0V491L213 492Q278 492 313 463T349 378Q349 288 270 257Q326 249 357 219ZM128 473V265L234 263Q279 271 303 300T327 377Q327 421 297 447T216
473H128ZM279 16T323 47T368 136Q368 234 241 245L128 244V19Q161 16 197 16Q279 16 323 47Z" />
<glyph unicode="c" glyph-name="c" horiz-adv-x="467" d="M358 494T421 450L415 432H409Q350 475 277 475Q180 475 130 416T79 244Q79 133 127 74T267 15Q347 15 416 66L422 64L420 46Q348 -4 268 -4Q166 -4 112 60T58 244Q58 364 114 429T277 494Q358 494 421 450Z" />
<glyph unicode="d" glyph-name="d" horiz-adv-x="561" d="M385 495T444 435T503 261Q503 134 442 65T266 -4Q182 -4 108 0V491L275 495Q385 495 444 435ZM371 15T427 78T483 260Q483 364 429 419T274 475L128 471V19Q196 15 267 15Q371 15 427 78Z" />
<glyph unicode="e" glyph-name="e" horiz-adv-x="412" d="M366 0H108V491H364L367 487L363 471L128 472V264H323L325 260L322 244H128V19H367L370 16L366 0Z" />
<glyph unicode="f" glyph-name="f" horiz-adv-x="369" d="M122 255H225L307 256L310 252L307 236H122V0H102V491H349L351 487L348 471L122 472V255Z" />
<glyph unicode="g" glyph-name="g" horiz-adv-x="532" d="M376 494T449 453L443 435H438Q364 475 301 475Q194 475 137 415T79 240Q79 131 129 73T272 15Q337 15 424 37V183L444 185V23Q388 8 352 3T272 -3Q169 -3 114 60T58 241Q58 363 121 428T301 494Q376 494
449 453Z" />
<glyph unicode="h" glyph-name="h" horiz-adv-x="588" d="M480 0H460V240H128V0H108V491H128V259H460V491H480V0Z" />
<glyph unicode="i" glyph-name="i" horiz-adv-x="237" d="M108 0V491H128V0H108Z" />
<glyph unicode="j" glyph-name="j" horiz-adv-x="261" d="M153 89Q153 34 132 -3T60 -76L48 -65V-60Q94 -29 113 5T133 88V472H31L28 475L31 491H153V89Z" />
<glyph unicode="k" glyph-name="k" horiz-adv-x="457" d="M108 0V491H128V0H108ZM295 127T431 5L430 1Q428 -1 415 -6L411 -4Q264 132 151 260V263L353 454L388 491H417L177 262Q295 127 431 5Z" />
<glyph unicode="l" glyph-name="l" horiz-adv-x="365" d="M339 0H107V491H127V19H340L342 16L339 0Z" />
<glyph unicode="m" glyph-name="m" horiz-adv-x="678" d="M578 0L562 150L526 447H522L349 62H326L156 447H152L117 151L101 0H80L137 491H161L193 415L336 91H339L489 423L520 491H543L598 0H578Z" />
<glyph unicode="n" glyph-name="n" horiz-adv-x="588" d="M478 0H458L132 451H129L128 154V0H108V146L109 491H129L455 40H459L460 490L480 492L479 137L478 0Z" />
<glyph unicode="o" glyph-name="o" horiz-adv-x="553" d="M384 495T439 433T495 254Q495 130 437 63T272 -4Q169 -4 114 60T58 244Q58 365 115 430T281 495Q384 495 439 433ZM182 475T131 416T79 245Q79 133 129 74T272 15Q370 15 422 76T475 252Q475 360 425
417T280 475Q182 475 131 416Z" />
<glyph unicode="p" glyph-name="p" horiz-adv-x="437" d="M299 492T338 457T377 354Q377 275 331 233T200 190H128V0H108V491L227 492Q299 492 338 457ZM288 215T322 253T356 353Q356 409 324 440T231 474L128 473V209H225Q288 215 322 253Z" />
<glyph unicode="q" glyph-name="q" horiz-adv-x="554" d="M382 -50T458 -82T617 -123V-128Q612 -138 609 -141H605Q522 -131 442 -95T296 -3Q288 -4 272 -4Q169 -4 114 60T58 244Q58 365 115 430T281 495Q384 495 439 433T495 254Q495 145 450 80T320 0Q382 -50
458 -82ZM79 133T129 74T272 15Q370 15 422 76T475 252Q475 360 425 417T280 475Q182 475 131 416T79 245Q79 133 129 74Z" />
<glyph unicode="r" glyph-name="r" horiz-adv-x="466" d="M321 106T405 5V1L391 -6L385 -3Q300 102 237 201H128V0H108V491L227 492Q299 492 338 457T377 357Q377 301 346 262T258 205Q321 106 405 5ZM243 219Q298 232 327 267T356 356Q356 411 324 441T231 474L128
473V220L243 219Z" />
<glyph unicode="s" glyph-name="s" horiz-adv-x="404" d="M274 493T324 471L320 453L314 452Q269 474 220 474Q181 474 152 459T108 419T93 369Q93 343 108 324T146 292T208 261Q251 242 277 226T322 186T341 126Q341 92 322 62T267 15T187 -3Q115 -3 61 33L62
52L67 53Q119 16 187 16Q227 16 257 31T304 72T321 125Q321 153 305 173T266 207T202 240Q159 260 134 275T91 313T73 371Q73 404 92 432T145 476T222 493Q274 493 324 471Z" />
<glyph unicode="t" glyph-name="t" horiz-adv-x="428" d="M384 471L301 472H225V0H205V472H131L45 471L42 475L45 491H385L387 487L384 471Z" />
<glyph unicode="u" glyph-name="u" horiz-adv-x="541" d="M455 91T407 44T271 -3Q182 -3 136 43T90 176L91 248V491H112L110 177Q109 99 150 58T271 16Q350 16 391 57T433 177V491H453V176Q455 91 407 44Z" />
<glyph unicode="v" glyph-name="v" horiz-adv-x="481" d="M225 0L35 491H58L69 456L235 30H238L418 456L430 491H453L246 0H225Z" />
<glyph unicode="w" glyph-name="w" horiz-adv-x="763" d="M511 0L385 331H382L245 0H224L38 491H61L71 456L234 31H237L374 363L325 491H347L358 455L520 31H524L700 456L712 491H734L532 0H511Z" />
<glyph unicode="x" glyph-name="x" horiz-adv-x="504" d="M448 0H421L401 30L246 238L90 29L72 0H46L233 254L57 491H85L103 463L246 270L387 459L406 491H433L259 254L448 0Z" />
<glyph unicode="y" glyph-name="y" horiz-adv-x="447" d="M226 0H206V187L40 491H65L74 470L214 217H218L370 470L380 491H405L226 186V0Z" />
<glyph unicode="z" glyph-name="z" horiz-adv-x="455" d="M72 19H339L396 20L400 16L397 0H76L45 -1V16L371 472H112L63 471L60 475L63 492L118 491H367L398 492V474L72 19Z" />
<glyph unicode="{" glyph-name="braceleft" horiz-adv-x="281" d="M242 653T260 648L263 645L259 628Q232 633 220 633Q184 633 167 612T149 546Q149 517 159 445Q168 387 168 357Q168 280 102 254V252Q168 226 168 149Q168 119 159 61Q149 -11 149 -40Q149 -85
166 -106T220 -127Q232 -127 259 -122L263 -139L260 -142Q242 -147 223 -147Q129 -147 129 -40Q129 -8 139 64Q148 122 148 149Q148 192 126 215T54 244V262Q103 268 125 291T148 357Q148 384 139 442Q129 514 129 546Q129 653 223 653Q242 653 260 648Z" />
<glyph unicode="|" glyph-name="bar" horiz-adv-x="320" d="M170 -265H153L150 -261V789L168 791L170 789V-265Z" />
<glyph unicode="}" glyph-name="braceright" horiz-adv-x="281" d="M39 -147T21 -142L18 -139L22 -122Q49 -127 61 -127Q97 -127 114 -106T132 -40Q132 -11 122 61Q113 119 113 149Q113 226 179 252V254Q113 280 113 357Q113 387 122 445Q132 517 132 546Q132
591 115 612T61 633Q49 633 22 628L18 645L21 648Q39 653 58 653Q152 653 152 546Q152 514 142 442Q133 384 133 357Q133 314 155 291T227 262V244Q178 238 156 215T133 149Q133 122 142 64Q152 -8 152 -40Q152 -147 58 -147Q39 -147 21 -142Z" />
<glyph unicode="~" glyph-name="asciitilde" horiz-adv-x="480" d="M137 279T103 250L84 233H78L71 242V247L135 300L141 303Q153 301 234 281Q313 258 333 258Q341 258 351 265T375 285T396 304H402L409 294V290L344 236L338 234Q315 236 237 258Q164 279 147
279Q137 279 103 250Z" />
<glyph unicode="&#xa0;" glyph-name="nbspace" horiz-adv-x="180" />
<glyph unicode="&#xa1;" glyph-name="exclamdown" horiz-adv-x="247" d="M111 259H127L131 254L123 -194L120 -197H106L103 -194L111 259ZM110 419T110 439Q110 459 130 459Q150 459 150 439Q150 419 130 419Q110 419 110 439Z" />
<glyph unicode="&#xa2;" glyph-name="cent" horiz-adv-x="384" d="M359 84Q301 41 227 41H214L200 -114H185L181 -110L194 44Q128 57 90 117T51 268Q51 339 73 392T135 474T228 503H233L246 650H262L266 645L254 501Q314 493 357 461L350 444H344Q304 474 252
481L216 61H228Q261 61 295 72T355 104L361 102L359 84ZM71 186T104 132T196 64L231 483H228Q157 483 114 425T71 268Q71 186 104 132Z" />
<glyph unicode="&#xa3;" glyph-name="sterling" horiz-adv-x="384" d="M343 0H36L32 4L35 18Q69 22 87 51T105 130V308H38L34 312L37 328H105V447Q105 517 136 554T229 591Q274 591 328 572L326 553L323 551Q282 571 232 571Q125 571 125 447V328H250L253 324L250
308H125V130Q125 56 85 22V20H273L342 21L346 16L343 0Z" />
<glyph unicode="&#xa4;" glyph-name="currency" horiz-adv-x="436" d="M369 515L305 451Q337 414 337 367Q337 319 305 284L371 218L370 213L360 203L355 204L290 269Q255 237 207 237Q159 237 124 269L58 203L53 204L43 214L44 219L109 284Q77 319 77 367Q77
414 109 451L43 517L44 522L53 531H58L124 465Q159 497 207 497Q252 497 290 466L355 531L360 530L370 520L369 515ZM162 477T130 445T97 367Q97 322 129 290T207 257Q252 257 284 289T317 367Q317 412 285 444T207 477Q162 477 130 445Z" />
<glyph unicode="&#xa5;" glyph-name="yen" horiz-adv-x="434" d="M418 147L416 130H226V0H206V130H19L16 133L18 150H206V187L166 260H19L16 263L18 280H155L40 491H65L74 470L214 217H218L370 470L380 491H405L281 280H415L418 277L416 260H269L226 186V150H415L418
147Z" />
<glyph unicode="&#xa6;" glyph-name="brokenbar" horiz-adv-x="320" d="M170 368L153 366L150 369V789L168 791L170 789V368ZM170 -265H153L150 -261V157L167 160L170 155V-265Z" />
<glyph unicode="&#xa7;" glyph-name="section" horiz-adv-x="407" d="M352 156T260 107Q302 62 302 16Q302 -16 284 -44T233 -88T159 -105Q94 -105 45 -70L48 -53L53 -50Q100 -85 159 -85Q215 -85 248 -55T282 15Q282 51 255 81T176 153Q118 199 89 232T60 309Q60
383 152 435Q110 479 110 524Q110 555 127 582T176 624T246 640Q290 640 338 620L333 601L327 600Q286 620 244 620Q209 620 183 606T144 570T130 523Q130 489 156 461T233 392Q291 347 321 312T352 231Q352 156 260 107ZM332 164T332 230Q332 269 305 299T223
373Q178 409 166 421Q125 399 103 369T80 308Q80 273 106 243T186 172Q225 141 246 122Q332 164 332 230Z" />
<glyph unicode="&#xa8;" glyph-name="dieresis" horiz-adv-x="390" d="M144 615T144 595Q144 575 124 575Q104 575 104 595Q104 615 124 615Q144 615 144 595ZM284 615T284 595Q284 575 264 575Q244 575 244 595Q244 615 264 615Q284 615 284 595Z" />
<glyph unicode="&#xa9;" glyph-name="copyright" horiz-adv-x="682" d="M427 598T493 560T595 453T632 293Q632 202 596 133T493 26T340 -12Q253 -12 187 26T85 133T49 293Q49 384 85 453T187 560T340 598Q427 598 493 560ZM259 578T198 543T103 443T69 293Q69
208 102 144T197 44T340 8Q421 8 482 43T578 143T612 293Q612 378 578 442T483 542T340 578Q259 578 198 543ZM402 465T447 436L442 418H437Q401 445 349 445Q286 445 253 407T219 295Q219 222 251 184T344 145Q399 145 443 177L447 176L445 157Q393 125 343 125Q273
125 236 169T199 295Q199 377 237 421T349 465Q402 465 447 436Z" />
<glyph unicode="&#xaa;" glyph-name="ordfeminine" horiz-adv-x="296" d="M188 644T209 625T230 570Q230 543 227 486L224 401Q224 366 247 366Q261 366 273 375L277 373L274 357Q261 348 242 348Q205 348 204 396H202Q161 349 117 347Q80 347 60 366T40 420Q40
470 96 483L208 507L210 566Q210 625 147 625Q105 625 56 585L52 586L48 601Q99 644 149 644Q188 644 209 625ZM61 458T61 421Q61 395 76 380T119 365Q163 365 204 419L207 491L103 467Q61 458 61 421Z" />
<glyph unicode="&#xab;" glyph-name="guillemotleft" horiz-adv-x="364" d="M30 228L185 396L197 387V381L52 223L197 65V59L185 50L30 217V228ZM176 228L331 396L343 387V381L198 223L343 65V59L331 50L176 217V228Z" />
<glyph unicode="&#xac;" glyph-name="logicalnot" horiz-adv-x="480" d="M416 71L399 69L396 72V260H38L35 263L37 280H410L416 274V71Z" />
<glyph unicode="&#xad;" glyph-name="softhyphen" horiz-adv-x="311" d="M280 261L35 228L31 232V248L276 281L280 277V261Z" />
<glyph unicode="&#xae;" glyph-name="registered" horiz-adv-x="432" d="M297 702T345 654T393 526Q393 446 345 398T217 349Q137 349 89 397T40 526Q40 606 88 654T217 702Q297 702 345 654ZM288 368T331 411T374 526Q374 597 331 640T217 683Q146 683 103 640T59
526Q59 455 102 412T217 368Q288 368 331 411ZM278 531T237 514Q263 473 290 441V438Q291 438 269 434L266 436Q243 466 215 510H180V497L181 437H159V629H218Q278 629 278 574Q278 531 237 514ZM220 528Q256 540 256 572Q256 609 213 611L181 610L180 530L220
528Z" />
<glyph unicode="&#xaf;" glyph-name="overscore" horiz-adv-x="390" d="M339 587H52L49 590L51 607H338L341 604L339 587Z" />
<glyph unicode="&#xb0;" glyph-name="degree" horiz-adv-x="294" d="M197 642T232 607T268 522Q268 472 233 438T147 403Q96 403 61 437T25 522Q25 572 60 607T147 642Q197 642 232 607ZM106 622T76 592T45 522Q45 482 75 453T147 423Q188 423 218 452T248 522Q248
562 218 592T147 622Q106 622 76 592Z" />
<glyph unicode="&#xb1;" glyph-name="plusminus" horiz-adv-x="480" d="M250 280H438L441 277L439 260H250V71L233 69L230 72V260H42L39 263L41 280H230V469L247 471L250 468V280ZM439 -65H42L39 -62L41 -45H438L441 -48L439 -65Z" />
<glyph unicode="&#xb2;" glyph-name="twosuperior" horiz-adv-x="336" d="M208 702T233 681T258 627Q258 598 237 564T166 468L72 352L74 350H249L310 351L312 347L309 330L244 331H75L46 330L44 332V347L151 478Q198 536 217 567T237 624Q237 649 218 666T166
683Q105 683 59 626H56L52 643Q100 702 168 702Q208 702 233 681Z" />
<glyph unicode="&#xb3;" glyph-name="threesuperior" horiz-adv-x="293" d="M170 703T195 682T220 627Q220 599 201 573T150 533V531Q193 522 216 498T239 438Q239 390 200 360T99 329Q68 329 39 335L37 351L39 353Q71 348 99 348Q153 348 186 372T219 438Q219
475 191 496T110 520H77L75 522L76 537H105Q125 537 147 548T184 580T199 624Q199 651 180 667T128 684Q85 684 42 645H39L35 662Q80 703 130 703Q170 703 195 682Z" />
<glyph unicode="&#xb4;" glyph-name="acute" horiz-adv-x="390" d="M276 658L275 653Q206 584 131 518L126 519L115 532Q184 590 261 669L266 668L276 658Z" />
<glyph unicode="&#xb5;" glyph-name="mu" horiz-adv-x="499" d="M475 11Q455 -3 430 -3Q375 -3 375 79H371Q293 -4 209 -4Q138 -4 110 50V-185H90V449L110 453V133Q110 77 136 47T212 16Q294 16 375 108V449L395 453V79Q395 17 431 17Q455 17 473 32L479 29L475 11Z" />
<glyph unicode="&#xb6;" glyph-name="paragraph" horiz-adv-x="447" d="M408 617H327V122Q327 14 203 -68L193 -57V-51Q307 24 307 118V617H236Q157 613 115 571T72 455Q72 379 117 332T249 269L245 249Q152 264 102 316T52 455Q52 542 101 589T243 637H407L411
633L408 617Z" />
<glyph unicode="&#xb7;" glyph-name="middot" horiz-adv-x="230" d="M135 258T135 238Q135 218 115 218Q95 218 95 238Q95 258 115 258Q135 258 135 238Z" />
<glyph unicode="&#xb8;" glyph-name="cedilla" horiz-adv-x="390" d="M220 -75Q253 -96 253 -125Q253 -149 236 -163T193 -178Q156 -178 134 -145L140 -127H144Q154 -143 165 -150T193 -158Q211 -158 222 -150T233 -125Q233 -114 228 -108T209 -92L165 -64L190
11H210L189 -55L220 -75Z" />
<glyph unicode="&#xb9;" glyph-name="onesuperior" horiz-adv-x="240" d="M138 331H118V679L20 652L16 654V670L135 705L138 701V331Z" />
<glyph unicode="&#xba;" glyph-name="ordmasculine" horiz-adv-x="329" d="M225 644T257 605T290 498Q290 427 256 387T162 346Q104 346 72 385T39 492Q39 563 73 603T167 644Q225 644 257 605ZM116 625T88 591T60 493Q60 432 87 399T162 365Q212 365 240 399T269
497Q269 557 242 591T166 625Q116 625 88 591Z" />
<glyph unicode="&#xbb;" glyph-name="guillemotright" horiz-adv-x="355" d="M329 218L174 50L162 59V65L307 223L162 381V387L174 396L329 229V218ZM439 218L284 50L272 59V65L417 223L272 381V387L284 396L439 229V218Z" />
<glyph unicode="&#xbc;" glyph-name="onequarter" horiz-adv-x="656" d="M43 -90L34 -86L30 -77L515 669L525 664L528 656L43 -90ZM20 589L16 591V607L135 642L138 638V268H118V616L20 589ZM613 118L563 119H544L545 2L543 0L527 -2L525 0V119H385L354 118L351
121V136L525 369H544V137H613L616 134L613 118ZM525 337H522L373 137H525V337Z" />
<glyph unicode="&#xbd;" glyph-name="onehalf" horiz-adv-x="657" d="M528 656L43 -90L34 -86L30 -77L515 669L525 664L528 656ZM138 268H118V616L20 589L16 591V607L135 642L138 638V268ZM529 371T554 350T579 296Q579 267 558 233T487 137L393 21L395 19H570L631
20L633 16L630 -1L565 0H396L367 -1L365 1V16L472 147Q519 205 538 236T558 293Q558 318 539 335T487 352Q426 352 380 295H377L373 312Q421 371 489 371Q529 371 554 350Z" />
<glyph unicode="&#xbe;" glyph-name="threequarters" horiz-adv-x="689" d="M76 -90L67 -86L63 -77L548 669L558 664L561 656L76 -90ZM239 327T200 297T99 266Q68 266 39 272L37 288L39 290Q71 285 99 285Q153 285 186 309T219 375Q219 412 191 433T110 457H77L75
459L76 474H105Q125 474 147 485T184 517T199 561Q199 588 180 604T128 621Q86 621 42 582H39L35 599Q80 640 130 640Q170 640 195 619T220 564Q220 536 201 510T150 470V468Q193 459 216 435T239 375Q239 327 200 297ZM646 118L596 119H577L578 2L576 0L560 -2L558
0V119H418L387 118L384 121V136L558 369H577V137H646L649 134L646 118ZM558 337H555L406 137H558V337Z" />
<glyph unicode="&#xbf;" glyph-name="questiondown" horiz-adv-x="322" d="M129 -188T71 -148T13 -43Q13 33 90 85L186 151L187 154L182 262L199 263L202 259L208 149L203 140L102 71Q33 27 33 -41Q33 -100 89 -135T248 -177L250 -180L244 -194L238 -197Q129 -188
71 -148ZM170 419T170 439Q170 459 190 459Q210 459 210 439Q210 419 190 419Q170 419 170 439Z" />
<glyph unicode="&#xc0;" glyph-name="Agrave" horiz-adv-x="554" d="M251 781T184 819L182 824L189 836L194 838Q279 788 370 744L363 729L358 726Q251 781 184 819ZM503 0L490 43L427 213H125L57 43L43 0H19L273 637H293L526 0H503ZM284 603H280L133 233H420L284 603Z" />
<glyph unicode="&#xc1;" glyph-name="Aacute" horiz-adv-x="554" d="M503 0L490 43L427 213H125L57 43L43 0H19L273 637H293L526 0H503ZM284 603H280L133 233H420L284 603ZM403 822L401 817Q334 779 227 724L222 727L215 742Q306 786 391 836L396 834L403 822Z" />
<glyph unicode="&#xc2;" glyph-name="Acircumflex" horiz-adv-x="554" d="M170 752Q217 785 268 828H284Q350 776 384 752L377 738H372Q326 770 277 808Q228 770 182 738H177L170 752ZM503 0L490 43L427 213H125L57 43L43 0H19L273 637H293L526 0H503ZM284 603H280L133
233H420L284 603Z" />
<glyph unicode="&#xc3;" glyph-name="Atilde" horiz-adv-x="554" d="M503 0L490 43L427 213H125L57 43L43 0H19L273 637H293L526 0H503ZM284 603H280L133 233H420L284 603ZM416 801L364 754L358 752Q338 754 277 772Q213 790 202 790Q194 790 172 768L151 749H147L138
760V764L190 811L196 813Q216 811 277 793Q341 775 352 775Q360 775 382 797L403 816H407L416 805V801Z" />
<glyph unicode="&#xc4;" glyph-name="Adieresis" horiz-adv-x="554" d="M187 760T187 780Q187 800 207 800Q227 800 227 780Q227 760 207 760Q187 760 187 780ZM327 760T327 780Q327 800 347 800Q367 800 367 780Q367 760 347 760Q327 760 327 780ZM503 0L490
43L427 213H125L57 43L43 0H19L273 637H293L526 0H503ZM284 603H280L133 233H420L284 603Z" />
<glyph unicode="&#xc5;" glyph-name="Aring" horiz-adv-x="554" d="M503 0L490 43L427 213H125L57 43L43 0H19L273 637H293L526 0H503ZM284 603H280L133 233H420L284 603ZM308 853T327 832T346 783Q346 752 325 733T275 714Q247 714 226 733T205 784Q205 814 224
833T275 853Q308 853 327 832ZM252 833T239 820T225 784Q225 761 239 748T275 734Q296 734 311 747T326 783Q326 804 313 818T275 833Q252 833 239 820Z" />
<glyph unicode="&#xc6;" glyph-name="AE" horiz-adv-x="791" d="M762 0H458L453 43L411 290L150 247L33 43L12 0H-15L353 637H654L657 633L652 617H377L428 313L664 352L667 349L664 332L431 294L477 20H764L766 16L762 0ZM358 602H355L164 270L408 310L358 602Z" />
<glyph unicode="&#xc7;" glyph-name="Ccedilla" horiz-adv-x="523" d="M410 1T317 -5L301 -55L332 -75Q365 -96 365 -125Q365 -149 348 -163T305 -178Q268 -178 246 -145L252 -127H256Q266 -143 277 -150T305 -158Q323 -158 334 -150T345 -125Q345 -114 340 -108T321
-92L277 -64L297 -5Q176 -3 112 80T48 317Q48 473 116 557T313 641Q413 641 489 582L482 565H475Q405 621 313 621Q194 621 131 542T68 316Q68 171 128 93T301 15Q401 15 484 82L491 80L489 62Q410 1 317 -5Z" />
<glyph unicode="&#xc8;" glyph-name="Egrave" horiz-adv-x="454" d="M240 781T173 819L171 824L178 836L183 838Q268 788 359 744L352 729L347 726Q240 781 173 819ZM421 0H110V637H418L421 633L417 617H130V340H368L371 336L367 320H130V20H422L425 16L421 0Z" />
<glyph unicode="&#xc9;" glyph-name="Eacute" horiz-adv-x="454" d="M421 0H110V637H418L421 633L417 617H130V340H368L371 336L367 320H130V20H422L425 16L421 0ZM392 822L390 817Q323 779 216 724L211 727L204 742Q295 786 380 836L385 834L392 822Z" />
<glyph unicode="&#xca;" glyph-name="Ecircumflex" horiz-adv-x="454" d="M159 752Q206 785 257 828H273Q339 776 373 752L366 738H361Q315 770 266 808Q217 770 171 738H166L159 752ZM421 0H110V637H418L421 633L417 617H130V340H368L371 336L367 320H130V20H422L425
16L421 0Z" />
<glyph unicode="&#xcb;" glyph-name="Edieresis" horiz-adv-x="454" d="M176 760T176 780Q176 800 196 800Q216 800 216 780Q216 760 196 760Q176 760 176 780ZM316 760T316 780Q316 800 336 800Q356 800 356 780Q356 760 336 760Q316 760 316 780ZM421 0H110V637H418L421
633L417 617H130V340H368L371 336L367 320H130V20H422L425 16L421 0Z" />
<glyph unicode="&#xcc;" glyph-name="Igrave" horiz-adv-x="240" d="M122 788T213 744L206 729L201 726Q94 781 27 819L25 824L32 836L37 838Q122 788 213 744ZM110 0V637H130V0H110Z" />
<glyph unicode="&#xcd;" glyph-name="Iacute" horiz-adv-x="240" d="M110 0V637H130V0H110ZM246 822L244 817Q177 779 70 724L65 727L58 742Q149 786 234 836L239 834L246 822Z" />
<glyph unicode="&#xce;" glyph-name="Icircumflex" horiz-adv-x="240" d="M60 785T111 828H127Q193 776 227 752L220 738H215Q169 770 120 808Q71 770 25 738H20L13 752Q60 785 111 828ZM110 0V637H130V0H110Z" />
<glyph unicode="&#xcf;" glyph-name="Idieresis" horiz-adv-x="240" d="M90 800T90 780Q90 760 70 760Q50 760 50 780Q50 800 70 800Q90 800 90 780ZM190 800T190 780Q190 760 170 760Q150 760 150 780Q150 800 170 800Q190 800 190 780ZM110 0V637H130V0H110Z" />
<glyph unicode="&#xd0;" glyph-name="Eth" horiz-adv-x="654" d="M462 642T534 564T606 339Q606 173 532 84T318 -5Q237 -5 127 0V319H10L8 322L9 339H127V637L328 642Q462 642 534 564ZM447 15T516 99T586 339Q586 476 519 549T328 622Q250 622 147 617V339H319L321
336L320 319H147V20Q254 15 318 15Q447 15 516 99Z" />
<glyph unicode="&#xd1;" glyph-name="Ntilde" horiz-adv-x="670" d="M558 0H539L135 595H131L130 199V0H110V190L111 637H130L534 42H538L540 636L560 638L559 176L558 0ZM470 801L418 754L412 752Q392 754 331 772Q267 790 256 790Q248 790 226 768L205 749H201L192
760V764L244 811L250 813Q270 811 331 793Q395 775 406 775Q414 775 436 797L457 816H461L470 805V801Z" />
<glyph unicode="&#xd2;" glyph-name="Ograve" horiz-adv-x="627" d="M444 642T511 561T579 329Q579 168 509 82T308 -5Q183 -5 116 78T48 317Q48 474 118 558T318 642Q444 642 511 561ZM197 622T133 543T68 317Q68 172 130 94T308 15Q429 15 494 96T559 329Q559
470 497 546T318 622Q197 622 133 543ZM219 824L221 819Q288 781 395 726L400 729L407 744Q316 788 231 838L226 836L219 824Z" />
<glyph unicode="&#xd3;" glyph-name="Oacute" horiz-adv-x="627" d="M444 642T511 561T579 329Q579 168 509 82T308 -5Q183 -5 116 78T48 317Q48 474 118 558T318 642Q444 642 511 561ZM197 622T133 543T68 317Q68 172 130 94T308 15Q429 15 494 96T559 329Q559
470 497 546T318 622Q197 622 133 543ZM440 822L438 817Q371 779 264 724L259 727L252 742Q343 786 428 836L433 834L440 822Z" />
<glyph unicode="&#xd4;" glyph-name="Ocircumflex" horiz-adv-x="627" d="M444 642T511 561T579 329Q579 168 509 82T308 -5Q183 -5 116 78T48 317Q48 474 118 558T318 642Q444 642 511 561ZM197 622T133 543T68 317Q68 172 130 94T308 15Q429 15 494 96T559 329Q559
470 497 546T318 622Q197 622 133 543ZM254 785T305 828H321Q387 776 421 752L414 738H409Q363 770 314 808Q265 770 219 738H214L207 752Q254 785 305 828Z" />
<glyph unicode="&#xd5;" glyph-name="Otilde" horiz-adv-x="627" d="M444 642T511 561T579 329Q579 168 509 82T308 -5Q183 -5 116 78T48 317Q48 474 118 558T318 642Q444 642 511 561ZM197 622T133 543T68 317Q68 172 130 94T308 15Q429 15 494 96T559 329Q559
470 497 546T318 622Q197 622 133 543ZM453 801L401 754L395 752Q375 754 314 772Q250 790 239 790Q231 790 209 768L188 749H184L175 760V764L227 811L233 813Q253 811 314 793Q378 775 389 775Q397 775 419 797L440 816H444L453 805V801Z" />
<glyph unicode="&#xd6;" glyph-name="Odieresis" horiz-adv-x="627" d="M444 642T511 561T579 329Q579 168 509 82T308 -5Q183 -5 116 78T48 317Q48 474 118 558T318 642Q444 642 511 561ZM197 622T133 543T68 317Q68 172 130 94T308 15Q429 15 494 96T559 329Q559
470 497 546T318 622Q197 622 133 543ZM404 800T404 780Q404 760 384 760Q364 760 364 780Q364 800 384 800Q404 800 404 780ZM264 800T264 780Q264 760 244 760Q224 760 224 780Q224 800 244 800Q264 800 264 780Z" />
<glyph unicode="&#xd7;" glyph-name="multiply" horiz-adv-x="480" d="M387 403L254 270L387 137V133L374 122L240 256L106 122L93 133V137L226 270L93 403V407L106 418L240 284L374 418L387 407V403Z" />
<glyph unicode="&#xd8;" glyph-name="Oslash" horiz-adv-x="627" d="M579 538T579 329Q579 168 509 82T308 -5Q236 -5 182 23L131 -87L115 -84L113 -80L165 33Q48 110 48 317Q48 474 118 558T318 642Q384 642 435 619L477 709L493 706L495 701L453 610Q579 538
579 329ZM68 124T174 52L427 600Q382 622 318 622Q197 622 133 543T68 317Q68 124 174 52ZM429 15T494 96T559 329Q559 524 444 591L191 42Q241 15 308 15Q429 15 494 96Z" />
<glyph unicode="&#xd9;" glyph-name="Ugrave" horiz-adv-x="612" d="M529 119T471 58T306 -4Q199 -4 143 56T86 229V637H106V229Q105 126 157 71T306 16Q403 16 454 71T506 229V637H526V229Q529 119 471 58ZM215 824L217 819Q284 781 391 726L396 729L403 744Q312
788 227 838L222 836L215 824Z" />
<glyph unicode="&#xda;" glyph-name="Uacute" horiz-adv-x="612" d="M529 119T471 58T306 -4Q199 -4 143 56T86 229V637H106V229Q105 126 157 71T306 16Q403 16 454 71T506 229V637H526V229Q529 119 471 58ZM436 822L434 817Q367 779 260 724L255 727L248 742Q339
786 424 836L429 834L436 822Z" />
<glyph unicode="&#xdb;" glyph-name="Ucircumflex" horiz-adv-x="612" d="M529 119T471 58T306 -4Q199 -4 143 56T86 229V637H106V229Q105 126 157 71T306 16Q403 16 454 71T506 229V637H526V229Q529 119 471 58ZM250 785T301 828H317Q383 776 417 752L410 738H405Q359
770 310 808Q261 770 215 738H210L203 752Q250 785 301 828Z" />
<glyph unicode="&#xdc;" glyph-name="Udieresis" horiz-adv-x="612" d="M529 119T471 58T306 -4Q199 -4 143 56T86 229V637H106V229Q105 126 157 71T306 16Q403 16 454 71T506 229V637H526V229Q529 119 471 58ZM400 800T400 780Q400 760 380 760Q360 760 360 780Q360
800 380 800Q400 800 400 780ZM260 800T260 780Q260 760 240 760Q220 760 220 780Q220 800 240 800Q260 800 260 780Z" />
<glyph unicode="&#xdd;" glyph-name="Yacute" horiz-adv-x="495" d="M248 0H228V246L26 637H52L63 611L236 277H241L429 611L440 637H466L248 245V0ZM365 822L363 817Q296 779 189 724L184 727L177 742Q268 786 353 836L358 834L365 822Z" />
<glyph unicode="&#xde;" glyph-name="Thorn" horiz-adv-x="487" d="M338 516T385 470T432 337Q432 235 377 181T219 126H130V0H110V637H130V514L251 516Q338 516 385 470ZM328 156T370 205T412 337Q412 411 372 452T258 496L130 495V146H249Q328 156 370 205Z" />
<glyph unicode="&#xdf;" glyph-name="germandbls" horiz-adv-x="526" d="M344 493T435 451L438 442L281 266Q472 244 472 127Q472 70 431 34T326 -3Q293 -3 258 6T195 33L198 52L202 53Q227 35 261 26T325 16Q381 16 416 48T452 127Q452 231 256 250L253 262L411
440Q339 474 269 474Q197 474 153 436T109 333V0H89V333Q89 405 139 449T269 493Q344 493 435 451Z" />
<glyph unicode="&#xe0;" glyph-name="agrave" horiz-adv-x="494" d="M241 623T172 692L171 697L181 707L186 708Q263 629 332 571L321 558L316 557Q241 623 172 692ZM429 0L419 35L370 161H122L69 35L57 0H34L241 491H262L452 0H429ZM252 461H249L130 180H362L252 461Z" />
<glyph unicode="&#xe1;" glyph-name="aacute" horiz-adv-x="494" d="M429 0L419 35L370 161H122L69 35L57 0H34L241 491H262L452 0H429ZM252 461H249L130 180H362L252 461ZM363 697L362 692Q293 623 218 557L213 558L202 571Q271 629 348 708L353 707L363 697Z" />
<glyph unicode="&#xe2;" glyph-name="acircumflex" horiz-adv-x="494" d="M141 571Q179 614 242 697H260Q323 614 361 571L352 559H347Q299 612 251 676Q203 612 155 559H150L141 571ZM429 0L419 35L370 161H122L69 35L57 0H34L241 491H262L452 0H429ZM252 461H249L130
180H362L252 461Z" />
<glyph unicode="&#xe3;" glyph-name="atilde" horiz-adv-x="494" d="M429 0L419 35L370 161H122L69 35L57 0H34L241 491H262L452 0H429ZM252 461H249L130 180H362L252 461ZM390 655L338 608L332 606Q312 608 251 626Q187 644 176 644Q168 644 146 622L125 603H121L112
614V618L164 665L170 667Q190 665 251 647Q315 629 326 629Q334 629 356 651L377 670H381L390 659V655Z" />
<glyph unicode="&#xe4;" glyph-name="adieresis" horiz-adv-x="494" d="M161 614T161 634Q161 654 181 654Q201 654 201 634Q201 614 181 614Q161 614 161 634ZM301 614T301 634Q301 654 321 654Q341 654 341 634Q341 614 321 614Q301 614 301 634ZM429 0L419
35L370 161H122L69 35L57 0H34L241 491H262L452 0H429ZM252 461H249L130 180H362L252 461Z" />
<glyph unicode="&#xe5;" glyph-name="aring" horiz-adv-x="494" d="M429 0L419 35L370 161H122L69 35L57 0H34L241 491H262L452 0H429ZM252 461H249L130 180H362L252 461ZM282 707T301 686T320 637Q320 606 299 587T249 568Q221 568 200 587T179 638Q179 668 198
687T249 707Q282 707 301 686ZM226 687T213 674T199 638Q199 615 213 602T249 588Q270 588 285 601T300 637Q300 658 287 672T249 687Q226 687 213 674Z" />
<glyph unicode="&#xe6;" glyph-name="ae" horiz-adv-x="688" d="M646 0H394L389 35L356 221L142 186L50 35L33 0H7L307 491H558L561 487L557 471L333 472L373 243L565 273L568 271L566 254L376 225L412 19H647L649 16L646 0ZM313 460H310L156 208L352 240L313 460Z" />
<glyph unicode="&#xe7;" glyph-name="ccedilla" horiz-adv-x="467" d="M351 -1T276 -4L260 -55L291 -75Q324 -96 324 -125Q324 -149 307 -163T264 -178Q227 -178 205 -145L211 -127H215Q225 -143 236 -150T264 -158Q282 -158 293 -150T304 -125Q304 -114 299 -108T280
-92L236 -64L256 -4Q160 0 109 64T58 244Q58 364 114 429T277 494Q358 494 421 450L415 432H409Q350 475 277 475Q180 475 130 416T79 244Q79 133 127 74T267 15Q347 15 416 66L422 64L420 46Q351 -1 276 -4Z" />
<glyph unicode="&#xe8;" glyph-name="egrave" horiz-adv-x="412" d="M227 623T158 692L157 697L167 707L172 708Q249 629 318 571L307 558L302 557Q227 623 158 692ZM366 0H108V491H364L367 487L363 471L128 472V264H323L325 260L322 244H128V19H367L370 16L366 0Z" />
<glyph unicode="&#xe9;" glyph-name="eacute" horiz-adv-x="412" d="M366 0H108V491H364L367 487L363 471L128 472V264H323L325 260L322 244H128V19H367L370 16L366 0ZM349 697L348 692Q279 623 204 557L199 558L188 571Q257 629 334 708L339 707L349 697Z" />
<glyph unicode="&#xea;" glyph-name="ecircumflex" horiz-adv-x="412" d="M127 571Q165 614 228 697H246Q309 614 347 571L338 559H333Q285 612 237 676Q189 612 141 559H136L127 571ZM366 0H108V491H364L367 487L363 471L128 472V264H323L325 260L322 244H128V19H367L370
16L366 0Z" />
<glyph unicode="&#xeb;" glyph-name="edieresis" horiz-adv-x="412" d="M147 614T147 634Q147 654 167 654Q187 654 187 634Q187 614 167 614Q147 614 147 634ZM287 614T287 634Q287 654 307 654Q327 654 327 634Q327 614 307 614Q287 614 287 634ZM366 0H108V491H364L367
487L363 471L128 472V264H323L325 260L322 244H128V19H367L370 16L366 0Z" />
<glyph unicode="&#xec;" glyph-name="igrave" horiz-adv-x="237" d="M131 629T200 571L189 558L184 557Q109 623 40 692L39 697L49 707L54 708Q131 629 200 571ZM108 0V491H128V0H108Z" />
<glyph unicode="&#xed;" glyph-name="iacute" horiz-adv-x="237" d="M108 0V491H128V0H108ZM488 697L487 692Q418 623 343 557L338 558L327 571Q396 629 473 708L478 707L488 697Z" />
<glyph unicode="&#xee;" glyph-name="icircumflex" horiz-adv-x="237" d="M48 614T111 697H129Q192 614 230 571L221 559H216Q168 612 120 676Q72 612 24 559H19L10 571Q48 614 111 697ZM108 0V491H128V0H108Z" />
<glyph unicode="&#xef;" glyph-name="idieresis" horiz-adv-x="237" d="M90 654T90 634Q90 614 70 614Q50 614 50 634Q50 654 70 654Q90 654 90 634ZM190 654T190 634Q190 614 170 614Q150 614 150 634Q150 654 170 654Q190 654 190 634ZM108 0V491H128V0H108Z" />
<glyph unicode="&#xf0;" glyph-name="eth" horiz-adv-x="570" d="M394 495T453 435T512 261Q512 134 451 65T275 -4Q191 -4 117 0V234H17L15 237L16 254H117V491L284 495Q394 495 453 435ZM380 15T436 78T492 260Q492 364 438 419T283 475L137 471V254H286L288
251L287 234H137V19Q205 15 276 15Q380 15 436 78Z" />
<glyph unicode="&#xf1;" glyph-name="ntilde" horiz-adv-x="588" d="M478 0H458L132 451H129L128 154V0H108V146L109 491H129L455 40H459L460 490L480 492L479 137L478 0ZM431 655L379 608L373 606Q353 608 292 626Q228 644 217 644Q209 644 187 622L166 603H162L153
614V618L205 665L211 667Q231 665 292 647Q356 629 367 629Q375 629 397 651L418 670H422L431 659V655Z" />
<glyph unicode="&#xf2;" glyph-name="ograve" horiz-adv-x="553" d="M290 629T359 571L348 558L343 557Q268 623 199 692L198 697L208 707L213 708Q290 629 359 571ZM384 495T439 433T495 254Q495 130 437 63T272 -4Q169 -4 114 60T58 244Q58 365 115 430T281
495Q384 495 439 433ZM182 475T131 416T79 245Q79 133 129 74T272 15Q370 15 422 76T475 252Q475 360 425 417T280 475Q182 475 131 416Z" />
<glyph unicode="&#xf3;" glyph-name="oacute" horiz-adv-x="553" d="M384 495T439 433T495 254Q495 130 437 63T272 -4Q169 -4 114 60T58 244Q58 365 115 430T281 495Q384 495 439 433ZM182 475T131 416T79 245Q79 133 129 74T272 15Q370 15 422 76T475 252Q475
360 425 417T280 475Q182 475 131 416ZM390 697L389 692Q320 623 245 557L240 558L229 571Q298 629 375 708L380 707L390 697Z" />
<glyph unicode="&#xf4;" glyph-name="ocircumflex" horiz-adv-x="553" d="M206 614T269 697H287Q350 614 388 571L379 559H374Q326 612 278 676Q230 612 182 559H177L168 571Q206 614 269 697ZM384 495T439 433T495 254Q495 130 437 63T272 -4Q169 -4 114 60T58
244Q58 365 115 430T281 495Q384 495 439 433ZM182 475T131 416T79 245Q79 133 129 74T272 15Q370 15 422 76T475 252Q475 360 425 417T280 475Q182 475 131 416Z" />
<glyph unicode="&#xf5;" glyph-name="otilde" horiz-adv-x="553" d="M384 495T439 433T495 254Q495 130 437 63T272 -4Q169 -4 114 60T58 244Q58 365 115 430T281 495Q384 495 439 433ZM182 475T131 416T79 245Q79 133 129 74T272 15Q370 15 422 76T475 252Q475
360 425 417T280 475Q182 475 131 416ZM417 655L365 608L359 606Q339 608 278 626Q214 644 203 644Q195 644 173 622L152 603H148L139 614V618L191 665L197 667Q217 665 278 647Q342 629 353 629Q361 629 383 651L404 670H408L417 659V655Z" />
<glyph unicode="&#xf6;" glyph-name="odieresis" horiz-adv-x="553" d="M228 654T228 634Q228 614 208 614Q188 614 188 634Q188 654 208 654Q228 654 228 634ZM368 654T368 634Q368 614 348 614Q328 614 328 634Q328 654 348 654Q368 654 368 634ZM384 495T439
433T495 254Q495 130 437 63T272 -4Q169 -4 114 60T58 244Q58 365 115 430T281 495Q384 495 439 433ZM182 475T131 416T79 245Q79 133 129 74T272 15Q370 15 422 76T475 252Q475 360 425 417T280 475Q182 475 131 416Z" />
<glyph unicode="&#xf7;" glyph-name="divide" horiz-adv-x="480" d="M454 260H57L54 263L56 280H453L456 277L454 260ZM284 108T284 88Q284 68 264 68Q244 68 244 88Q244 108 264 108Q284 108 284 88ZM284 471T284 451Q284 431 264 431Q244 431 244 451Q244 471
264 471Q284 471 284 451Z" />
<glyph unicode="&#xf8;" glyph-name="oslash" horiz-adv-x="553" d="M495 418T495 254Q495 130 437 63T272 -4Q221 -4 184 11L140 -87L124 -84L122 -80L166 19Q58 75 58 244Q58 365 115 430T281 495Q332 495 371 480L402 550L417 548L419 543L388 472Q495 418
495 254ZM79 89T174 37L362 461Q325 475 280 475Q182 475 131 416T79 245Q79 89 174 37ZM370 15T422 76T475 252Q475 404 379 453L191 29Q228 15 272 15Q370 15 422 76Z" />
<glyph unicode="&#xf9;" glyph-name="ugrave" horiz-adv-x="541" d="M287 629T356 571L345 558L340 557Q265 623 196 692L195 697L205 707L210 708Q287 629 356 571ZM455 91T407 44T271 -3Q182 -3 136 43T90 176L91 248V491H112L110 177Q109 99 150 58T271 16Q350
16 391 57T433 177V491H453V176Q455 91 407 44Z" />
<glyph unicode="&#xfa;" glyph-name="uacute" horiz-adv-x="541" d="M455 91T407 44T271 -3Q182 -3 136 43T90 176L91 248V491H112L110 177Q109 99 150 58T271 16Q350 16 391 57T433 177V491H453V176Q455 91 407 44ZM386 697L385 692Q316 623 241 557L236 558L225
571Q294 629 371 708L376 707L386 697Z" />
<glyph unicode="&#xfb;" glyph-name="ucircumflex" horiz-adv-x="541" d="M203 614T266 697H284Q347 614 385 571L376 559H371Q323 612 275 676Q227 612 179 559H174L165 571Q203 614 266 697ZM455 91T407 44T271 -3Q182 -3 136 43T90 176L91 248V491H112L110
177Q109 99 150 58T271 16Q350 16 391 57T433 177V491H453V176Q455 91 407 44Z" />
<glyph unicode="&#xfc;" glyph-name="udieresis" horiz-adv-x="541" d="M225 654T225 634Q225 614 205 614Q185 614 185 634Q185 654 205 654Q225 654 225 634ZM365 654T365 634Q365 614 345 614Q325 614 325 634Q325 654 345 654Q365 654 365 634ZM455 91T407
44T271 -3Q182 -3 136 43T90 176L91 248V491H112L110 177Q109 99 150 58T271 16Q350 16 391 57T433 177V491H453V176Q455 91 407 44Z" />
<glyph unicode="&#xfd;" glyph-name="yacute" horiz-adv-x="447" d="M226 0H206V187L40 491H65L74 470L214 217H218L370 470L380 491H405L226 186V0ZM338 697L337 692Q268 623 193 557L188 558L177 571Q246 629 323 708L328 707L338 697Z" />
<glyph unicode="&#xfe;" glyph-name="thorn" horiz-adv-x="440" d="M299 398T338 363T377 260Q377 181 331 139T200 96H128V0H108V491H128V397L227 398Q299 398 338 363ZM289 122T322 159T356 259Q356 315 324 346T231 380L128 379V115H225Q289 122 322 159Z" />
<glyph unicode="&#xff;" glyph-name="ydieresis" horiz-adv-x="447" d="M136 614T136 634Q136 654 156 654Q176 654 176 634Q176 614 156 614Q136 614 136 634ZM276 614T276 634Q276 654 296 654Q316 654 316 634Q316 614 296 614Q276 614 276 634ZM226 0H206V187L40
491H65L74 470L214 217H218L370 470L380 491H405L226 186V0Z" />
<glyph unicode="&#x2013;" glyph-name="endash" horiz-adv-x="492" d="M505 244H-12L-15 247L-13 264H504L507 261L505 244Z" />
<glyph unicode="&#x2014;" glyph-name="emdash" horiz-adv-x="972" d="M985 244H-12L-15 247L-13 264H984L987 261L985 244Z" />
<glyph unicode="&#x2018;" glyph-name="quoteleft" horiz-adv-x="124" d="M32 491T32 534Q32 580 85 636L98 625V621Q54 574 54 538Q54 508 92 499V495Q91 492 82 479Q32 491 32 534Z" />
<glyph unicode="&#x2019;" glyph-name="quoteright" horiz-adv-x="124" d="M96 622T96 579Q96 533 43 477L30 488V492Q74 539 74 575Q74 605 36 614V618Q37 621 46 634Q96 622 96 579Z" />
<glyph unicode="&#x201a;" glyph-name="quotesinglbase" horiz-adv-x="230" d="M401 24T401 -7Q401 -49 335 -100L325 -89L326 -86Q380 -46 380 -8Q380 12 350 26V30Q355 37 363 41Q401 24 401 -7Z" />
<glyph unicode="&#x201c;" glyph-name="quotedblleft" horiz-adv-x="206" d="M118 491T118 534Q118 580 171 636L184 625V621Q140 574 140 538Q140 508 178 499V495Q177 492 168 479Q118 491 118 534ZM23 491T23 534Q23 580 76 636L89 625V621Q45 574 45 538Q45
508 83 499V495Q82 492 73 479Q23 491 23 534Z" />
<glyph unicode="&#x201d;" glyph-name="quotedblright" horiz-adv-x="219" d="M187 622T187 579Q187 533 134 477L121 488V492Q165 539 165 575Q165 605 127 614V618Q128 621 137 634Q187 622 187 579ZM348 622T348 579Q348 533 295 477L282 488V492Q326 539 326
575Q326 605 288 614V618Q289 621 298 634Q348 622 348 579Z" />
<glyph unicode="&#x201e;" glyph-name="quotedblbase" horiz-adv-x="325" d="M240 24T240 -7Q240 -49 174 -100L164 -89L165 -86Q219 -46 219 -8Q219 12 189 26V30Q194 37 202 41Q240 24 240 -7ZM401 24T401 -7Q401 -49 335 -100L325 -89L326 -86Q380 -46 380
-8Q380 12 350 26V30Q355 37 363 41Q401 24 401 -7Z" />
<glyph unicode="&#x2022;" glyph-name="bullet" horiz-adv-x="231" d="M135 258T135 238Q135 218 115 218Q95 218 95 238Q95 258 115 258Q135 258 135 238Z" />
<glyph unicode="&#x2039;" glyph-name="guilsinglleft" horiz-adv-x="214" d="M30 228L185 396L197 387V381L52 223L197 65V59L185 50L30 217V228Z" />
<glyph unicode="&#x203a;" glyph-name="guilsinglright" horiz-adv-x="209" d="M188 218L33 50L21 59V65L166 223L21 381V387L33 396L188 229V218Z" />
</font>
</defs>
</svg>
